<svg viewBox="0 0 194 26" xmlns="http://www.w3.org/2000/svg" fill="none"><path fill-rule="evenodd" clip-rule="evenodd" d="M36.7038 7.82403C35.9843 7.51118 35.1396 7.32347 34.0133 7.32347C31.3541 7.32347 30.0402 8.76257 29.2893 12.11V7.57375H24.0335V25.0932H29.3206V16.5212C29.3206 13.6117 30.7597 12.0787 32.6681 12.0787C33.7631 12.0787 34.6078 12.2977 35.4212 12.7044L36.7038 7.82403ZM46.7487 7.22962C40.8672 7.22962 37.3945 11.4218 37.3945 16.4899C37.3945 21.6206 40.4917 25.406 46.7487 25.406C51.0034 25.406 53.6313 23.529 55.1643 20.7133L50.628 18.8362C49.7207 20.5256 48.6883 21.2452 46.78 21.2452C44.2459 21.2452 42.8068 19.9625 42.494 17.5536H55.6023V15.8642C55.6023 11.3592 52.8492 7.22962 46.7487 7.22962ZM42.5565 14.7692C42.932 12.4854 44.3711 11.234 46.6861 11.234C49.2202 11.234 50.3152 12.7044 50.4403 14.7692H42.5565ZM59.9303 17.0217C58.6164 17.8977 57.6778 18.9927 57.6778 21.0575C57.6778 23.8105 59.7739 25.4373 63.1527 25.4373C66.156 25.4373 68.5649 23.9357 69.6286 21.339C69.7537 24.1547 71.1928 25.406 74.0398 25.406C75.5101 25.406 76.699 24.9368 77.3247 24.4988V21.2452C76.9805 21.3703 76.6051 21.4955 76.1358 21.4955C75.0409 21.4955 74.5716 20.9636 74.5716 19.3994V13.7994C74.5716 9.48213 71.7247 7.22962 66.9381 7.22962C62.9024 7.22962 59.5862 9.04414 58.022 12.7044L62.5895 14.3312C63.2778 12.329 64.6543 11.1715 66.7504 11.1715C68.7839 11.1715 69.5973 11.9849 69.5973 13.0173C69.5973 13.9558 69.1593 14.4564 66.4376 15.0195C63.0588 15.7391 61.213 16.2083 59.9303 17.0217ZM69.7225 16.3648V17.272C69.6912 19.1804 68.3146 21.7144 65.3426 21.7144C63.7158 21.7144 62.9024 21.1513 62.9024 19.9938C62.9024 18.6798 63.9974 18.1167 66.7817 17.5223C68.4711 17.1469 69.3158 16.8027 69.7225 16.3648ZM84.9237 7.57375H79.6678V25.0932H84.955V16.4586C84.955 13.2363 85.8622 11.453 88.1147 11.453C90.3985 11.453 91.1493 12.8609 91.1493 15.6765V25.0932H96.4052V16.4586C96.4052 13.2363 97.3124 11.453 99.565 11.453C101.849 11.453 102.6 12.8609 102.6 15.6765V25.0932H107.887V14.1122C107.887 9.92011 105.697 7.22962 101.911 7.22962C99.2521 7.22962 97.1873 8.63743 96.0298 11.4218C95.3102 8.79386 93.4644 7.22962 90.5862 7.22962C87.8957 7.22962 86.0186 8.60616 84.9237 11.5156V7.57375ZM111.933 2.25534V25.0932H117.376V16.7089H126.824V12.767H117.376V7.01063H128.795V2.25534H111.933ZM137.321 25.0932V0.190552H132.034V25.0932H137.321ZM142.664 17.0217C141.35 17.8977 140.411 18.9927 140.411 21.0575C140.411 23.8105 142.507 25.4373 145.886 25.4373C148.89 25.4373 151.298 23.9357 152.362 21.339C152.487 24.1547 153.926 25.406 156.773 25.406C158.244 25.406 159.433 24.9368 160.058 24.4988V21.2452C159.714 21.3703 159.339 21.4955 158.869 21.4955C157.774 21.4955 157.305 20.9636 157.305 19.3994V13.7994C157.305 9.48213 154.458 7.22962 149.672 7.22962C145.636 7.22962 142.32 9.04414 140.755 12.7044L145.323 14.3312C146.011 12.329 147.388 11.1715 149.484 11.1715C151.517 11.1715 152.331 11.9849 152.331 13.0173C152.331 13.9558 151.893 14.4564 149.171 15.0195C145.792 15.7391 143.947 16.2083 142.664 17.0217ZM152.456 16.3648V17.272C152.425 19.1804 151.048 21.7144 148.076 21.7144C146.449 21.7144 145.636 21.1513 145.636 19.9938C145.636 18.6798 146.731 18.1167 149.515 17.5223C151.205 17.1469 152.049 16.8027 152.456 16.3648ZM175.072 7.82403C174.352 7.51118 173.507 7.32347 172.381 7.32347C169.722 7.32347 168.408 8.76257 167.657 12.11V7.57375H162.401V25.0932H167.688V16.5212C167.688 13.6117 169.128 12.0787 171.036 12.0787C172.131 12.0787 172.976 12.2977 173.789 12.7044L175.072 7.82403ZM185.117 7.22962C179.235 7.22962 175.762 11.4218 175.762 16.4899C175.762 21.6206 178.86 25.406 185.117 25.406C189.371 25.406 191.999 23.529 193.532 20.7133L188.996 18.8362C188.089 20.5256 187.056 21.2452 185.148 21.2452C182.614 21.2452 181.175 19.9625 180.862 17.5536H193.97V15.8642C193.97 11.3592 191.217 7.22962 185.117 7.22962ZM180.924 14.7692C181.3 12.4854 182.739 11.234 185.054 11.234C187.588 11.234 188.683 12.7044 188.808 14.7692H180.924ZM0 4.59323C0 3.21252 1.11929 2.09323 2.5 2.09323H8.5C14.8513 2.09323 20 7.24196 20 13.5932C20 19.9445 14.8513 25.0932 8.5 25.0932H3.95665C1.81829 25.0932 0.92001 22.4633 1.66165 20.4577C1.87956 19.8684 2.15509 19.322 2.5 18.9419C3.72771 17.5891 5.03883 16.7023 6.54697 16.7023C8.05511 16.7023 8.69138 16.8882 9.5777 18.0781L10.6027 19.4541C10.712 19.6008 10.9445 19.536 10.9622 19.354L11.1901 17.0082C11.2992 15.8855 11.8773 14.861 12.7819 14.1872L14.672 12.7792C14.8187 12.67 14.7539 12.4375 14.5719 12.4198L12.2261 12.1918C11.1034 12.0827 10.0789 11.5047 9.40509 10.6001L7.99715 8.70995C7.8879 8.56329 7.65538 8.62806 7.63769 8.81008L7.40972 11.1559C7.30062 12.2786 6.85556 13.2489 5.92448 14.0476C5.77789 14.1734 5.63641 14.2943 5.49949 14.4113C4.76678 15.0376 4.16492 15.5521 3.61149 16.0916C3.5355 16.1657 3.4517 16.2454 3.36168 16.3311C2.67358 16.9856 1.62239 17.9856 0.923702 19.4541C0.133619 21.1148 0 22.3191 0 22.3191V4.59323Z" fill="white"></path></svg>